<?xml version="1.0" encoding="utf-8" standalone="no"?>
<!DOCTYPE svg PUBLIC "-//W3C//DTD SVG 1.1//EN"
  "http://www.w3.org/Graphics/SVG/1.1/DTD/svg11.dtd">
<svg xmlns:xlink="http://www.w3.org/1999/xlink" width="886.2805pt" height="231.645562pt" viewBox="0 0 886.2805 231.645562" xmlns="http://www.w3.org/2000/svg" version="1.1">
 <metadata>
  <rdf:RDF xmlns:dc="http://purl.org/dc/elements/1.1/" xmlns:cc="http://creativecommons.org/ns#" xmlns:rdf="http://www.w3.org/1999/02/22-rdf-syntax-ns#">
   <cc:Work>
    <dc:type rdf:resource="http://purl.org/dc/dcmitype/StillImage"/>
    <dc:date>2026-06-04T09:33:58.364913</dc:date>
    <dc:format>image/svg+xml</dc:format>
    <dc:creator>
     <cc:Agent>
      <dc:title>Matplotlib v3.10.9, https://matplotlib.org/</dc:title>
     </cc:Agent>
    </dc:creator>
   </cc:Work>
  </rdf:RDF>
 </metadata>
 <defs>
  <style type="text/css">*{stroke-linejoin: round; stroke-linecap: butt}</style>
 </defs>
 <g id="figure_1">
  <g id="patch_1">
   <path d="M 0 231.645562 
L 886.2805 231.645562 
L 886.2805 0 
L 0 0 
z
" style="fill: #ffffff"/>
  </g>
  <g id="axes_1">
   <g id="patch_2">
    <path d="M 29.9285 215.449312 
L 285.1365 215.449312 
L 285.1365 15.577313 
L 29.9285 15.577313 
z
" style="fill: #ffffff"/>
   </g>
   <g id="matplotlib.axis_1">
    <g id="xtick_1">
     <g id="line2d_1">
      <defs>
       <path id="m646d77dcea" d="M 0 0 
L 0 2.5 
" style="stroke: #333333; stroke-width: 0.6"/>
      </defs>
      <g>
       <use xlink:href="#m646d77dcea" x="90.088525" y="215.449312" style="fill: #333333; stroke: #333333; stroke-width: 0.6"/>
      </g>
     </g>
     <g id="text_1">
      <text style="font-size: 8px; font-family: 'Arial'; text-anchor: middle" x="90.088525" y="227.175562" transform="rotate(-0 90.088525 227.175562)">MLP</text>
     </g>
    </g>
    <g id="xtick_2">
     <g id="line2d_2">
      <g>
       <use xlink:href="#m646d77dcea" x="224.976475" y="215.449312" style="fill: #333333; stroke: #333333; stroke-width: 0.6"/>
      </g>
     </g>
     <g id="text_2">
      <text style="font-size: 8px; font-family: 'Arial'; text-anchor: middle" x="224.976475" y="227.175562" transform="rotate(-0 224.976475 227.175562)">TabM-mini</text>
     </g>
    </g>
   </g>
   <g id="matplotlib.axis_2">
    <g id="ytick_1">
     <g id="line2d_3">
      <path d="M 29.9285 215.449312 
L 285.1365 215.449312 
" clip-path="url(#p14b2bf14c8)" style="fill: none; stroke: #d8d8d8; stroke-opacity: 0.45; stroke-width: 0.38; stroke-linecap: square"/>
     </g>
     <g id="line2d_4">
      <defs>
       <path id="m077a725d92" d="M 0 0 
L -2.5 0 
" style="stroke: #333333; stroke-width: 0.6"/>
      </defs>
      <g>
       <use xlink:href="#m077a725d92" x="29.9285" y="215.449312" style="fill: #333333; stroke: #333333; stroke-width: 0.6"/>
      </g>
     </g>
     <g id="text_3">
      <text style="font-size: 8px; font-family: 'Arial'; text-anchor: end" x="23.9285" y="218.312437" transform="rotate(-0 23.9285 218.312437)">0</text>
     </g>
    </g>
    <g id="ytick_2">
     <g id="line2d_5">
      <path d="M 29.9285 177.122946 
L 285.1365 177.122946 
" clip-path="url(#p14b2bf14c8)" style="fill: none; stroke: #d8d8d8; stroke-opacity: 0.45; stroke-width: 0.38; stroke-linecap: square"/>
     </g>
     <g id="line2d_6">
      <g>
       <use xlink:href="#m077a725d92" x="29.9285" y="177.122946" style="fill: #333333; stroke: #333333; stroke-width: 0.6"/>
      </g>
     </g>
     <g id="text_4">
      <text style="font-size: 8px; font-family: 'Arial'; text-anchor: end" x="23.9285" y="179.986071" transform="rotate(-0 23.9285 179.986071)">10</text>
     </g>
    </g>
    <g id="ytick_3">
     <g id="line2d_7">
      <path d="M 29.9285 138.79658 
L 285.1365 138.79658 
" clip-path="url(#p14b2bf14c8)" style="fill: none; stroke: #d8d8d8; stroke-opacity: 0.45; stroke-width: 0.38; stroke-linecap: square"/>
     </g>
     <g id="line2d_8">
      <g>
       <use xlink:href="#m077a725d92" x="29.9285" y="138.79658" style="fill: #333333; stroke: #333333; stroke-width: 0.6"/>
      </g>
     </g>
     <g id="text_5">
      <text style="font-size: 8px; font-family: 'Arial'; text-anchor: end" x="23.9285" y="141.659705" transform="rotate(-0 23.9285 141.659705)">20</text>
     </g>
    </g>
    <g id="ytick_4">
     <g id="line2d_9">
      <path d="M 29.9285 100.470214 
L 285.1365 100.470214 
" clip-path="url(#p14b2bf14c8)" style="fill: none; stroke: #d8d8d8; stroke-opacity: 0.45; stroke-width: 0.38; stroke-linecap: square"/>
     </g>
     <g id="line2d_10">
      <g>
       <use xlink:href="#m077a725d92" x="29.9285" y="100.470214" style="fill: #333333; stroke: #333333; stroke-width: 0.6"/>
      </g>
     </g>
     <g id="text_6">
      <text style="font-size: 8px; font-family: 'Arial'; text-anchor: end" x="23.9285" y="103.333339" transform="rotate(-0 23.9285 103.333339)">30</text>
     </g>
    </g>
    <g id="ytick_5">
     <g id="line2d_11">
      <path d="M 29.9285 62.143847 
L 285.1365 62.143847 
" clip-path="url(#p14b2bf14c8)" style="fill: none; stroke: #d8d8d8; stroke-opacity: 0.45; stroke-width: 0.38; stroke-linecap: square"/>
     </g>
     <g id="line2d_12">
      <g>
       <use xlink:href="#m077a725d92" x="29.9285" y="62.143847" style="fill: #333333; stroke: #333333; stroke-width: 0.6"/>
      </g>
     </g>
     <g id="text_7">
      <text style="font-size: 8px; font-family: 'Arial'; text-anchor: end" x="23.9285" y="65.006972" transform="rotate(-0 23.9285 65.006972)">40</text>
     </g>
    </g>
    <g id="ytick_6">
     <g id="line2d_13">
      <path d="M 29.9285 23.817481 
L 285.1365 23.817481 
" clip-path="url(#p14b2bf14c8)" style="fill: none; stroke: #d8d8d8; stroke-opacity: 0.45; stroke-width: 0.38; stroke-linecap: square"/>
     </g>
     <g id="line2d_14">
      <g>
       <use xlink:href="#m077a725d92" x="29.9285" y="23.817481" style="fill: #333333; stroke: #333333; stroke-width: 0.6"/>
      </g>
     </g>
     <g id="text_8">
      <text style="font-size: 8px; font-family: 'Arial'; text-anchor: end" x="23.9285" y="26.680606" transform="rotate(-0 23.9285 26.680606)">50</text>
     </g>
    </g>
    <g id="text_9">
     <text style="font-size: 8.8px; font-family: 'Arial'; text-anchor: middle" x="9.178875" y="115.513312" transform="rotate(-90 9.178875 115.513312)">Final triggered-target acquisitions</text>
    </g>
   </g>
   <g id="patch_3">
    <path d="M 41.528864 215.449312 
L 73.901971 215.449312 
L 73.901971 215.449312 
L 41.528864 215.449312 
z
" clip-path="url(#p14b2bf14c8)" style="fill: #0072b2; stroke: #333333; stroke-width: 0.35; stroke-linejoin: miter"/>
   </g>
   <g id="patch_4">
    <path d="M 176.416813 215.449312 
L 208.789921 215.449312 
L 208.789921 215.449312 
L 176.416813 215.449312 
z
" clip-path="url(#p14b2bf14c8)" style="fill: #0072b2; stroke: #333333; stroke-width: 0.35; stroke-linejoin: miter"/>
   </g>
   <g id="patch_5">
    <path d="M 73.901971 215.449312 
L 106.275079 215.449312 
L 106.275079 215.449312 
L 73.901971 215.449312 
z
" clip-path="url(#p14b2bf14c8)" style="fill: url(#h0085eb54c1); stroke: #333333; stroke-width: 0.35; stroke-linejoin: miter"/>
   </g>
   <g id="patch_6">
    <path d="M 208.789921 215.449312 
L 241.163029 215.449312 
L 241.163029 215.449312 
L 208.789921 215.449312 
z
" clip-path="url(#p14b2bf14c8)" style="fill: url(#h0085eb54c1); stroke: #333333; stroke-width: 0.35; stroke-linejoin: miter"/>
   </g>
   <g id="patch_7">
    <path d="M 106.275079 215.449312 
L 138.648187 215.449312 
L 138.648187 55.75612 
L 106.275079 55.75612 
z
" clip-path="url(#p14b2bf14c8)" style="fill: url(#he189646ac4); stroke: #333333; stroke-width: 0.35; stroke-linejoin: miter"/>
   </g>
   <g id="patch_8">
    <path d="M 241.163029 215.449312 
L 273.536136 215.449312 
L 273.536136 25.095027 
L 241.163029 25.095027 
z
" clip-path="url(#p14b2bf14c8)" style="fill: url(#he189646ac4); stroke: #333333; stroke-width: 0.35; stroke-linejoin: miter"/>
   </g>
   <g id="patch_9">
    <path d="M 29.9285 215.449312 
L 29.9285 15.577313 
" style="fill: none; stroke: #333333; stroke-width: 0.7; stroke-linejoin: miter; stroke-linecap: square"/>
   </g>
   <g id="patch_10">
    <path d="M 29.9285 215.449312 
L 285.1365 215.449312 
" style="fill: none; stroke: #333333; stroke-width: 0.7; stroke-linejoin: miter; stroke-linecap: square"/>
   </g>
   <g id="text_10">
    <text style="font-weight: 600; font-size: 9.2px; font-family: 'Arial'; text-anchor: start" x="29.9285" y="9.577313" transform="rotate(-0 29.9285 9.577313)">A. Final triggered-target acquisitions</text>
   </g>
   <g id="legend_1">
    <g id="patch_11">
     <path d="M 34.7285 26.103563 
L 45.1285 26.103563 
L 45.1285 20.503563 
L 34.7285 20.503563 
z
" style="fill: #0072b2; stroke: #333333; stroke-width: 0.35; stroke-linejoin: miter"/>
    </g>
    <g id="text_11">
     <text style="font-size: 8px; font-family: 'Arial'; text-anchor: start" x="48.7285" y="26.103563" transform="rotate(-0 48.7285 26.103563)">Clean</text>
    </g>
    <g id="patch_12">
     <path d="M 34.7285 35.659813 
L 45.1285 35.659813 
L 45.1285 30.059813 
L 34.7285 30.059813 
z
" style="fill: url(#h0085eb54c1); stroke: #333333; stroke-width: 0.35; stroke-linejoin: miter"/>
    </g>
    <g id="text_12">
     <text style="font-size: 8px; font-family: 'Arial'; text-anchor: start" x="48.7285" y="35.659813" transform="rotate(-0 48.7285 35.659813)">Random swap</text>
    </g>
    <g id="patch_13">
     <path d="M 34.7285 45.216063 
L 45.1285 45.216063 
L 45.1285 39.616063 
L 34.7285 39.616063 
z
" style="fill: url(#he189646ac4); stroke: #333333; stroke-width: 0.35; stroke-linejoin: miter"/>
    </g>
    <g id="text_13">
     <text style="font-size: 8px; font-family: 'Arial'; text-anchor: start" x="48.7285" y="45.216063" transform="rotate(-0 48.7285 45.216063)">Targeted swap</text>
    </g>
   </g>
  </g>
  <g id="axes_2">
   <g id="patch_14">
    <path d="M 329.0605 215.449312 
L 584.2685 215.449312 
L 584.2685 15.577313 
L 329.0605 15.577313 
z
" style="fill: #ffffff"/>
   </g>
   <g id="matplotlib.axis_3">
    <g id="xtick_3">
     <g id="line2d_15">
      <g>
       <use xlink:href="#m646d77dcea" x="389.220525" y="215.449312" style="fill: #333333; stroke: #333333; stroke-width: 0.6"/>
      </g>
     </g>
     <g id="text_14">
      <text style="font-size: 8px; font-family: 'Arial'; text-anchor: middle" x="389.220525" y="227.175562" transform="rotate(-0 389.220525 227.175562)">MLP</text>
     </g>
    </g>
    <g id="xtick_4">
     <g id="line2d_16">
      <g>
       <use xlink:href="#m646d77dcea" x="524.108475" y="215.449312" style="fill: #333333; stroke: #333333; stroke-width: 0.6"/>
      </g>
     </g>
     <g id="text_15">
      <text style="font-size: 8px; font-family: 'Arial'; text-anchor: middle" x="524.108475" y="227.175562" transform="rotate(-0 524.108475 227.175562)">TabM-mini</text>
     </g>
    </g>
   </g>
   <g id="matplotlib.axis_4">
    <g id="ytick_7">
     <g id="line2d_17">
      <path d="M 329.0605 199.780128 
L 584.2685 199.780128 
" clip-path="url(#p1d592e92b7)" style="fill: none; stroke: #d8d8d8; stroke-opacity: 0.45; stroke-width: 0.38; stroke-linecap: square"/>
     </g>
     <g id="line2d_18">
      <g>
       <use xlink:href="#m077a725d92" x="329.0605" y="199.780128" style="fill: #333333; stroke: #333333; stroke-width: 0.6"/>
      </g>
     </g>
     <g id="text_16">
      <text style="font-size: 8px; font-family: 'Arial'; text-anchor: end" x="323.0605" y="202.643253" transform="rotate(-0 323.0605 202.643253)">0.00</text>
     </g>
    </g>
    <g id="ytick_8">
     <g id="line2d_19">
      <path d="M 329.0605 174.916829 
L 584.2685 174.916829 
" clip-path="url(#p1d592e92b7)" style="fill: none; stroke: #d8d8d8; stroke-opacity: 0.45; stroke-width: 0.38; stroke-linecap: square"/>
     </g>
     <g id="line2d_20">
      <g>
       <use xlink:href="#m077a725d92" x="329.0605" y="174.916829" style="fill: #333333; stroke: #333333; stroke-width: 0.6"/>
      </g>
     </g>
     <g id="text_17">
      <text style="font-size: 8px; font-family: 'Arial'; text-anchor: end" x="323.0605" y="177.779954" transform="rotate(-0 323.0605 177.779954)">0.25</text>
     </g>
    </g>
    <g id="ytick_9">
     <g id="line2d_21">
      <path d="M 329.0605 150.053529 
L 584.2685 150.053529 
" clip-path="url(#p1d592e92b7)" style="fill: none; stroke: #d8d8d8; stroke-opacity: 0.45; stroke-width: 0.38; stroke-linecap: square"/>
     </g>
     <g id="line2d_22">
      <g>
       <use xlink:href="#m077a725d92" x="329.0605" y="150.053529" style="fill: #333333; stroke: #333333; stroke-width: 0.6"/>
      </g>
     </g>
     <g id="text_18">
      <text style="font-size: 8px; font-family: 'Arial'; text-anchor: end" x="323.0605" y="152.916654" transform="rotate(-0 323.0605 152.916654)">0.50</text>
     </g>
    </g>
    <g id="ytick_10">
     <g id="line2d_23">
      <path d="M 329.0605 125.19023 
L 584.2685 125.19023 
" clip-path="url(#p1d592e92b7)" style="fill: none; stroke: #d8d8d8; stroke-opacity: 0.45; stroke-width: 0.38; stroke-linecap: square"/>
     </g>
     <g id="line2d_24">
      <g>
       <use xlink:href="#m077a725d92" x="329.0605" y="125.19023" style="fill: #333333; stroke: #333333; stroke-width: 0.6"/>
      </g>
     </g>
     <g id="text_19">
      <text style="font-size: 8px; font-family: 'Arial'; text-anchor: end" x="323.0605" y="128.053355" transform="rotate(-0 323.0605 128.053355)">0.75</text>
     </g>
    </g>
    <g id="ytick_11">
     <g id="line2d_25">
      <path d="M 329.0605 100.32693 
L 584.2685 100.32693 
" clip-path="url(#p1d592e92b7)" style="fill: none; stroke: #d8d8d8; stroke-opacity: 0.45; stroke-width: 0.38; stroke-linecap: square"/>
     </g>
     <g id="line2d_26">
      <g>
       <use xlink:href="#m077a725d92" x="329.0605" y="100.32693" style="fill: #333333; stroke: #333333; stroke-width: 0.6"/>
      </g>
     </g>
     <g id="text_20">
      <text style="font-size: 8px; font-family: 'Arial'; text-anchor: end" x="323.0605" y="103.190055" transform="rotate(-0 323.0605 103.190055)">1.00</text>
     </g>
    </g>
    <g id="ytick_12">
     <g id="line2d_27">
      <path d="M 329.0605 75.463631 
L 584.2685 75.463631 
" clip-path="url(#p1d592e92b7)" style="fill: none; stroke: #d8d8d8; stroke-opacity: 0.45; stroke-width: 0.38; stroke-linecap: square"/>
     </g>
     <g id="line2d_28">
      <g>
       <use xlink:href="#m077a725d92" x="329.0605" y="75.463631" style="fill: #333333; stroke: #333333; stroke-width: 0.6"/>
      </g>
     </g>
     <g id="text_21">
      <text style="font-size: 8px; font-family: 'Arial'; text-anchor: end" x="323.0605" y="78.326756" transform="rotate(-0 323.0605 78.326756)">1.25</text>
     </g>
    </g>
    <g id="ytick_13">
     <g id="line2d_29">
      <path d="M 329.0605 50.600331 
L 584.2685 50.600331 
" clip-path="url(#p1d592e92b7)" style="fill: none; stroke: #d8d8d8; stroke-opacity: 0.45; stroke-width: 0.38; stroke-linecap: square"/>
     </g>
     <g id="line2d_30">
      <g>
       <use xlink:href="#m077a725d92" x="329.0605" y="50.600331" style="fill: #333333; stroke: #333333; stroke-width: 0.6"/>
      </g>
     </g>
     <g id="text_22">
      <text style="font-size: 8px; font-family: 'Arial'; text-anchor: end" x="323.0605" y="53.463456" transform="rotate(-0 323.0605 53.463456)">1.50</text>
     </g>
    </g>
    <g id="ytick_14">
     <g id="line2d_31">
      <path d="M 329.0605 25.737032 
L 584.2685 25.737032 
" clip-path="url(#p1d592e92b7)" style="fill: none; stroke: #d8d8d8; stroke-opacity: 0.45; stroke-width: 0.38; stroke-linecap: square"/>
     </g>
     <g id="line2d_32">
      <g>
       <use xlink:href="#m077a725d92" x="329.0605" y="25.737032" style="fill: #333333; stroke: #333333; stroke-width: 0.6"/>
      </g>
     </g>
     <g id="text_23">
      <text style="font-size: 8px; font-family: 'Arial'; text-anchor: end" x="323.0605" y="28.600157" transform="rotate(-0 323.0605 28.600157)">1.75</text>
     </g>
    </g>
    <g id="text_24">
     <text style="font-size: 8.8px; font-family: 'Arial'; text-anchor: middle" x="301.639625" y="115.513312" transform="rotate(-90 301.639625 115.513312)">Trigger toggle delta</text>
    </g>
   </g>
   <g id="patch_15">
    <path d="M 340.660864 199.780128 
L 373.033971 199.780128 
L 373.033971 199.760772 
L 340.660864 199.760772 
z
" clip-path="url(#p1d592e92b7)" style="fill: #0072b2; stroke: #333333; stroke-width: 0.35; stroke-linejoin: miter"/>
   </g>
   <g id="patch_16">
    <path d="M 475.548813 199.780128 
L 507.921921 199.780128 
L 507.921921 204.996877 
L 475.548813 204.996877 
z
" clip-path="url(#p1d592e92b7)" style="fill: #0072b2; stroke: #333333; stroke-width: 0.35; stroke-linejoin: miter"/>
   </g>
   <g id="patch_17">
    <path d="M 373.033971 199.780128 
L 405.407079 199.780128 
L 405.407079 200.274354 
L 373.033971 200.274354 
z
" clip-path="url(#p1d592e92b7)" style="fill: url(#h0085eb54c1); stroke: #333333; stroke-width: 0.35; stroke-linejoin: miter"/>
   </g>
   <g id="patch_18">
    <path d="M 507.921921 199.780128 
L 540.295029 199.780128 
L 540.295029 206.364222 
L 507.921921 206.364222 
z
" clip-path="url(#p1d592e92b7)" style="fill: url(#h0085eb54c1); stroke: #333333; stroke-width: 0.35; stroke-linejoin: miter"/>
   </g>
   <g id="patch_19">
    <path d="M 405.407079 199.780128 
L 437.780187 199.780128 
L 437.780187 68.510029 
L 405.407079 68.510029 
z
" clip-path="url(#p1d592e92b7)" style="fill: url(#he189646ac4); stroke: #333333; stroke-width: 0.35; stroke-linejoin: miter"/>
   </g>
   <g id="patch_20">
    <path d="M 540.295029 199.780128 
L 572.668136 199.780128 
L 572.668136 24.662403 
L 540.295029 24.662403 
z
" clip-path="url(#p1d592e92b7)" style="fill: url(#he189646ac4); stroke: #333333; stroke-width: 0.35; stroke-linejoin: miter"/>
   </g>
   <g id="patch_21">
    <path d="M 329.0605 215.449312 
L 329.0605 15.577312 
" style="fill: none; stroke: #333333; stroke-width: 0.7; stroke-linejoin: miter; stroke-linecap: square"/>
   </g>
   <g id="patch_22">
    <path d="M 329.0605 215.449312 
L 584.2685 215.449312 
" style="fill: none; stroke: #333333; stroke-width: 0.7; stroke-linejoin: miter; stroke-linecap: square"/>
   </g>
   <g id="text_25">
    <text style="font-weight: 600; font-size: 9.2px; font-family: 'Arial'; text-anchor: start" x="329.0605" y="9.577313" transform="rotate(-0 329.0605 9.577313)">B. Trigger toggle delta</text>
   </g>
  </g>
  <g id="axes_3">
   <g id="patch_23">
    <path d="M 628.1925 215.449312 
L 883.4005 215.449312 
L 883.4005 15.577313 
L 628.1925 15.577313 
z
" style="fill: #ffffff"/>
   </g>
   <g id="matplotlib.axis_5">
    <g id="xtick_5">
     <g id="line2d_33">
      <g>
       <use xlink:href="#m646d77dcea" x="688.352525" y="215.449312" style="fill: #333333; stroke: #333333; stroke-width: 0.6"/>
      </g>
     </g>
     <g id="text_26">
      <text style="font-size: 8px; font-family: 'Arial'; text-anchor: middle" x="688.352525" y="227.175562" transform="rotate(-0 688.352525 227.175562)">MLP</text>
     </g>
    </g>
    <g id="xtick_6">
     <g id="line2d_34">
      <g>
       <use xlink:href="#m646d77dcea" x="823.240475" y="215.449312" style="fill: #333333; stroke: #333333; stroke-width: 0.6"/>
      </g>
     </g>
     <g id="text_27">
      <text style="font-size: 8px; font-family: 'Arial'; text-anchor: middle" x="823.240475" y="227.175562" transform="rotate(-0 823.240475 227.175562)">TabM-mini</text>
     </g>
    </g>
   </g>
   <g id="matplotlib.axis_6">
    <g id="ytick_15">
     <g id="line2d_35">
      <path d="M 628.1925 213.273192 
L 883.4005 213.273192 
" clip-path="url(#p1225929c51)" style="fill: none; stroke: #d8d8d8; stroke-opacity: 0.45; stroke-width: 0.38; stroke-linecap: square"/>
     </g>
     <g id="line2d_36">
      <g>
       <use xlink:href="#m077a725d92" x="628.1925" y="213.273192" style="fill: #333333; stroke: #333333; stroke-width: 0.6"/>
      </g>
     </g>
     <g id="text_28">
      <text style="font-size: 8px; font-family: 'Arial'; text-anchor: end" x="622.1925" y="216.136317" transform="rotate(-0 622.1925 216.136317)">−0.7</text>
     </g>
    </g>
    <g id="ytick_16">
     <g id="line2d_37">
      <path d="M 628.1925 185.030924 
L 883.4005 185.030924 
" clip-path="url(#p1225929c51)" style="fill: none; stroke: #d8d8d8; stroke-opacity: 0.45; stroke-width: 0.38; stroke-linecap: square"/>
     </g>
     <g id="line2d_38">
      <g>
       <use xlink:href="#m077a725d92" x="628.1925" y="185.030924" style="fill: #333333; stroke: #333333; stroke-width: 0.6"/>
      </g>
     </g>
     <g id="text_29">
      <text style="font-size: 8px; font-family: 'Arial'; text-anchor: end" x="622.1925" y="187.894049" transform="rotate(-0 622.1925 187.894049)">−0.6</text>
     </g>
    </g>
    <g id="ytick_17">
     <g id="line2d_39">
      <path d="M 628.1925 156.788655 
L 883.4005 156.788655 
" clip-path="url(#p1225929c51)" style="fill: none; stroke: #d8d8d8; stroke-opacity: 0.45; stroke-width: 0.38; stroke-linecap: square"/>
     </g>
     <g id="line2d_40">
      <g>
       <use xlink:href="#m077a725d92" x="628.1925" y="156.788655" style="fill: #333333; stroke: #333333; stroke-width: 0.6"/>
      </g>
     </g>
     <g id="text_30">
      <text style="font-size: 8px; font-family: 'Arial'; text-anchor: end" x="622.1925" y="159.65178" transform="rotate(-0 622.1925 159.65178)">−0.5</text>
     </g>
    </g>
    <g id="ytick_18">
     <g id="line2d_41">
      <path d="M 628.1925 128.546387 
L 883.4005 128.546387 
" clip-path="url(#p1225929c51)" style="fill: none; stroke: #d8d8d8; stroke-opacity: 0.45; stroke-width: 0.38; stroke-linecap: square"/>
     </g>
     <g id="line2d_42">
      <g>
       <use xlink:href="#m077a725d92" x="628.1925" y="128.546387" style="fill: #333333; stroke: #333333; stroke-width: 0.6"/>
      </g>
     </g>
     <g id="text_31">
      <text style="font-size: 8px; font-family: 'Arial'; text-anchor: end" x="622.1925" y="131.409512" transform="rotate(-0 622.1925 131.409512)">−0.4</text>
     </g>
    </g>
    <g id="ytick_19">
     <g id="line2d_43">
      <path d="M 628.1925 100.304118 
L 883.4005 100.304118 
" clip-path="url(#p1225929c51)" style="fill: none; stroke: #d8d8d8; stroke-opacity: 0.45; stroke-width: 0.38; stroke-linecap: square"/>
     </g>
     <g id="line2d_44">
      <g>
       <use xlink:href="#m077a725d92" x="628.1925" y="100.304118" style="fill: #333333; stroke: #333333; stroke-width: 0.6"/>
      </g>
     </g>
     <g id="text_32">
      <text style="font-size: 8px; font-family: 'Arial'; text-anchor: end" x="622.1925" y="103.167243" transform="rotate(-0 622.1925 103.167243)">−0.3</text>
     </g>
    </g>
    <g id="ytick_20">
     <g id="line2d_45">
      <path d="M 628.1925 72.06185 
L 883.4005 72.06185 
" clip-path="url(#p1225929c51)" style="fill: none; stroke: #d8d8d8; stroke-opacity: 0.45; stroke-width: 0.38; stroke-linecap: square"/>
     </g>
     <g id="line2d_46">
      <g>
       <use xlink:href="#m077a725d92" x="628.1925" y="72.06185" style="fill: #333333; stroke: #333333; stroke-width: 0.6"/>
      </g>
     </g>
     <g id="text_33">
      <text style="font-size: 8px; font-family: 'Arial'; text-anchor: end" x="622.1925" y="74.924975" transform="rotate(-0 622.1925 74.924975)">−0.2</text>
     </g>
    </g>
    <g id="ytick_21">
     <g id="line2d_47">
      <path d="M 628.1925 43.819581 
L 883.4005 43.819581 
" clip-path="url(#p1225929c51)" style="fill: none; stroke: #d8d8d8; stroke-opacity: 0.45; stroke-width: 0.38; stroke-linecap: square"/>
     </g>
     <g id="line2d_48">
      <g>
       <use xlink:href="#m077a725d92" x="628.1925" y="43.819581" style="fill: #333333; stroke: #333333; stroke-width: 0.6"/>
      </g>
     </g>
     <g id="text_34">
      <text style="font-size: 8px; font-family: 'Arial'; text-anchor: end" x="622.1925" y="46.682706" transform="rotate(-0 622.1925 46.682706)">−0.1</text>
     </g>
    </g>
    <g id="ytick_22">
     <g id="line2d_49">
      <path d="M 628.1925 15.577313 
L 883.4005 15.577313 
" clip-path="url(#p1225929c51)" style="fill: none; stroke: #d8d8d8; stroke-opacity: 0.45; stroke-width: 0.38; stroke-linecap: square"/>
     </g>
     <g id="line2d_50">
      <g>
       <use xlink:href="#m077a725d92" x="628.1925" y="15.577313" style="fill: #333333; stroke: #333333; stroke-width: 0.6"/>
      </g>
     </g>
     <g id="text_35">
      <text style="font-size: 8px; font-family: 'Arial'; text-anchor: end" x="622.1925" y="18.440438" transform="rotate(-0 622.1925 18.440438)">0.0</text>
     </g>
    </g>
    <g id="text_36">
     <text style="font-size: 8.8px; font-family: 'Arial'; text-anchor: middle" x="600.547875" y="115.513312" transform="rotate(-90 600.547875 115.513312)">Trigger-off FAS</text>
    </g>
   </g>
   <g id="patch_24">
    <path d="M 639.792864 15.577313 
L 672.165971 15.577313 
L 672.165971 186.720093 
L 639.792864 186.720093 
z
" clip-path="url(#p1225929c51)" style="fill: #0072b2; stroke: #333333; stroke-width: 0.35; stroke-linejoin: miter"/>
   </g>
   <g id="patch_25">
    <path d="M 774.680813 15.577313 
L 807.053921 15.577313 
L 807.053921 205.931598 
L 774.680813 205.931598 
z
" clip-path="url(#p1225929c51)" style="fill: #0072b2; stroke: #333333; stroke-width: 0.35; stroke-linejoin: miter"/>
   </g>
   <g id="patch_26">
    <path d="M 672.165971 15.577313 
L 704.539079 15.577313 
L 704.539079 196.03684 
L 672.165971 196.03684 
z
" clip-path="url(#p1225929c51)" style="fill: url(#h0085eb54c1); stroke: #333333; stroke-width: 0.35; stroke-linejoin: miter"/>
   </g>
   <g id="patch_27">
    <path d="M 807.053921 15.577313 
L 839.427029 15.577313 
L 839.427029 204.317443 
L 807.053921 204.317443 
z
" clip-path="url(#p1225929c51)" style="fill: url(#h0085eb54c1); stroke: #333333; stroke-width: 0.35; stroke-linejoin: miter"/>
   </g>
   <g id="patch_28">
    <path d="M 704.539079 15.577313 
L 736.912187 15.577313 
L 736.912187 193.203137 
L 704.539079 193.203137 
z
" clip-path="url(#p1225929c51)" style="fill: url(#he189646ac4); stroke: #333333; stroke-width: 0.35; stroke-linejoin: miter"/>
   </g>
   <g id="patch_29">
    <path d="M 839.427029 15.577313 
L 871.800136 15.577313 
L 871.800136 174.771851 
L 839.427029 174.771851 
z
" clip-path="url(#p1225929c51)" style="fill: url(#he189646ac4); stroke: #333333; stroke-width: 0.35; stroke-linejoin: miter"/>
   </g>
   <g id="patch_30">
    <path d="M 628.1925 215.449312 
L 628.1925 15.577313 
" style="fill: none; stroke: #333333; stroke-width: 0.7; stroke-linejoin: miter; stroke-linecap: square"/>
   </g>
   <g id="patch_31">
    <path d="M 628.1925 215.449312 
L 883.4005 215.449312 
" style="fill: none; stroke: #333333; stroke-width: 0.7; stroke-linejoin: miter; stroke-linecap: square"/>
   </g>
   <g id="text_37">
    <text style="font-weight: 600; font-size: 9.2px; font-family: 'Arial'; text-anchor: start" x="628.1925" y="9.577313" transform="rotate(-0 628.1925 9.577313)">C. Trigger-off FAS</text>
   </g>
  </g>
 </g>
 <defs>
  <clipPath id="p14b2bf14c8">
   <rect x="29.9285" y="15.577313" width="255.208" height="199.872"/>
  </clipPath>
  <clipPath id="p1d592e92b7">
   <rect x="329.0605" y="15.577313" width="255.208" height="199.872"/>
  </clipPath>
  <clipPath id="p1225929c51">
   <rect x="628.1925" y="15.577313" width="255.208" height="199.872"/>
  </clipPath>
 </defs>
 <defs>
  <pattern id="h0085eb54c1" patternUnits="userSpaceOnUse" x="0" y="0" width="72" height="72">
   <rect x="0" y="0" width="73" height="73" fill="#009e73"/>
   <path d="M -36 36 
L 36 -36 
M -33 39 
L 39 -33 
M -30 42 
L 42 -30 
M -27 45 
L 45 -27 
M -24 48 
L 48 -24 
M -21 51 
L 51 -21 
M -18 54 
L 54 -18 
M -15 57 
L 57 -15 
M -12 60 
L 60 -12 
M -9 63 
L 63 -9 
M -6 66 
L 66 -6 
M -3 69 
L 69 -3 
M 0 72 
L 72 0 
M 3 75 
L 75 3 
M 6 78 
L 78 6 
M 9 81 
L 81 9 
M 12 84 
L 84 12 
M 15 87 
L 87 15 
M 18 90 
L 90 18 
M 21 93 
L 93 21 
M 24 96 
L 96 24 
M 27 99 
L 99 27 
M 30 102 
L 102 30 
M 33 105 
L 105 33 
M 36 108 
L 108 36 
" style="fill: #333333; stroke: #333333; stroke-width: 1.0; stroke-linecap: butt; stroke-linejoin: miter"/>
  </pattern>
  <pattern id="he189646ac4" patternUnits="userSpaceOnUse" x="0" y="0" width="72" height="72">
   <rect x="0" y="0" width="73" height="73" fill="#d55e00"/>
   <path d="M -36 36 
L 36 108 
M -33 33 
L 39 105 
M -30 30 
L 42 102 
M -27 27 
L 45 99 
M -24 24 
L 48 96 
M -21 21 
L 51 93 
M -18 18 
L 54 90 
M -15 15 
L 57 87 
M -12 12 
L 60 84 
M -9 9 
L 63 81 
M -6 6 
L 66 78 
M -3 3 
L 69 75 
M 0 0 
L 72 72 
M 3 -3 
L 75 69 
M 6 -6 
L 78 66 
M 9 -9 
L 81 63 
M 12 -12 
L 84 60 
M 15 -15 
L 87 57 
M 18 -18 
L 90 54 
M 21 -21 
L 93 51 
M 24 -24 
L 96 48 
M 27 -27 
L 99 45 
M 30 -30 
L 102 42 
M 33 -33 
L 105 39 
M 36 -36 
L 108 36 
" style="fill: #333333; stroke: #333333; stroke-width: 1.0; stroke-linecap: butt; stroke-linejoin: miter"/>
  </pattern>
 </defs>
</svg>
