<?xml version="1.0" encoding="utf-8" standalone="no"?>
<!DOCTYPE svg PUBLIC "-//W3C//DTD SVG 1.1//EN"
  "http://www.w3.org/Graphics/SVG/1.1/DTD/svg11.dtd">
<svg xmlns:xlink="http://www.w3.org/1999/xlink" width="691.98275pt" height="455.6285pt" viewBox="0 0 691.98275 455.6285" xmlns="http://www.w3.org/2000/svg" version="1.1">
 <metadata>
  <rdf:RDF xmlns:dc="http://purl.org/dc/elements/1.1/" xmlns:cc="http://creativecommons.org/ns#" xmlns:rdf="http://www.w3.org/1999/02/22-rdf-syntax-ns#">
   <cc:Work>
    <dc:type rdf:resource="http://purl.org/dc/dcmitype/StillImage"/>
    <dc:date>2026-06-04T09:35:00.220079</dc:date>
    <dc:format>image/svg+xml</dc:format>
    <dc:creator>
     <cc:Agent>
      <dc:title>Matplotlib v3.10.9, https://matplotlib.org/</dc:title>
     </cc:Agent>
    </dc:creator>
   </cc:Work>
  </rdf:RDF>
 </metadata>
 <defs>
  <style type="text/css">*{stroke-linejoin: round; stroke-linecap: butt}</style>
 </defs>
 <g id="figure_1">
  <g id="patch_1">
   <path d="M 0 455.6285 
L 691.98275 455.6285 
L 691.98275 -0 
L 0 -0 
z
" style="fill: #ffffff"/>
  </g>
  <g id="axes_1">
   <g id="patch_2">
    <path d="M 36.93075 227.53325 
L 341.08475 227.53325 
L 341.08475 51.152 
L 36.93075 51.152 
z
" style="fill: #ffffff"/>
   </g>
   <g id="matplotlib.axis_1">
    <g id="xtick_1">
     <g id="line2d_1">
      <defs>
       <path id="m6237c7ac7f" d="M 0 0 
L 0 2.5 
" style="stroke: #333333; stroke-width: 0.6"/>
      </defs>
      <g>
       <use xlink:href="#m6237c7ac7f" x="108.628786" y="227.53325" style="fill: #333333; stroke: #333333; stroke-width: 0.6"/>
      </g>
     </g>
     <g id="text_1">
      <text style="font-size: 8px; font-family: 'Arial'; text-anchor: middle" x="108.628786" y="239.2595" transform="rotate(-0 108.628786 239.2595)">MLP</text>
     </g>
    </g>
    <g id="xtick_2">
     <g id="line2d_2">
      <g>
       <use xlink:href="#m6237c7ac7f" x="269.386714" y="227.53325" style="fill: #333333; stroke: #333333; stroke-width: 0.6"/>
      </g>
     </g>
     <g id="text_2">
      <text style="font-size: 8px; font-family: 'Arial'; text-anchor: middle" x="269.386714" y="239.2595" transform="rotate(-0 269.386714 239.2595)">TabM-mini</text>
     </g>
    </g>
   </g>
   <g id="matplotlib.axis_2">
    <g id="ytick_1">
     <g id="line2d_3">
      <path d="M 36.93075 226.567535 
L 341.08475 226.567535 
" clip-path="url(#pc7e6925f3e)" style="fill: none; stroke: #d8d8d8; stroke-opacity: 0.45; stroke-width: 0.38; stroke-linecap: square"/>
     </g>
     <g id="line2d_4">
      <defs>
       <path id="mb8b650ca8d" d="M 0 0 
L -2.5 0 
" style="stroke: #333333; stroke-width: 0.6"/>
      </defs>
      <g>
       <use xlink:href="#mb8b650ca8d" x="36.93075" y="226.567535" style="fill: #333333; stroke: #333333; stroke-width: 0.6"/>
      </g>
     </g>
     <g id="text_3">
      <text style="font-size: 8px; font-family: 'Arial'; text-anchor: end" x="30.93075" y="229.43066" transform="rotate(-0 30.93075 229.43066)">−0.5</text>
     </g>
    </g>
    <g id="ytick_2">
     <g id="line2d_5">
      <path d="M 36.93075 195.764729 
L 341.08475 195.764729 
" clip-path="url(#pc7e6925f3e)" style="fill: none; stroke: #d8d8d8; stroke-opacity: 0.45; stroke-width: 0.38; stroke-linecap: square"/>
     </g>
     <g id="line2d_6">
      <g>
       <use xlink:href="#mb8b650ca8d" x="36.93075" y="195.764729" style="fill: #333333; stroke: #333333; stroke-width: 0.6"/>
      </g>
     </g>
     <g id="text_4">
      <text style="font-size: 8px; font-family: 'Arial'; text-anchor: end" x="30.93075" y="198.627854" transform="rotate(-0 30.93075 198.627854)">0.0</text>
     </g>
    </g>
    <g id="ytick_3">
     <g id="line2d_7">
      <path d="M 36.93075 164.961924 
L 341.08475 164.961924 
" clip-path="url(#pc7e6925f3e)" style="fill: none; stroke: #d8d8d8; stroke-opacity: 0.45; stroke-width: 0.38; stroke-linecap: square"/>
     </g>
     <g id="line2d_8">
      <g>
       <use xlink:href="#mb8b650ca8d" x="36.93075" y="164.961924" style="fill: #333333; stroke: #333333; stroke-width: 0.6"/>
      </g>
     </g>
     <g id="text_5">
      <text style="font-size: 8px; font-family: 'Arial'; text-anchor: end" x="30.93075" y="167.825049" transform="rotate(-0 30.93075 167.825049)">0.5</text>
     </g>
    </g>
    <g id="ytick_4">
     <g id="line2d_9">
      <path d="M 36.93075 134.159118 
L 341.08475 134.159118 
" clip-path="url(#pc7e6925f3e)" style="fill: none; stroke: #d8d8d8; stroke-opacity: 0.45; stroke-width: 0.38; stroke-linecap: square"/>
     </g>
     <g id="line2d_10">
      <g>
       <use xlink:href="#mb8b650ca8d" x="36.93075" y="134.159118" style="fill: #333333; stroke: #333333; stroke-width: 0.6"/>
      </g>
     </g>
     <g id="text_6">
      <text style="font-size: 8px; font-family: 'Arial'; text-anchor: end" x="30.93075" y="137.022243" transform="rotate(-0 30.93075 137.022243)">1.0</text>
     </g>
    </g>
    <g id="ytick_5">
     <g id="line2d_11">
      <path d="M 36.93075 103.356312 
L 341.08475 103.356312 
" clip-path="url(#pc7e6925f3e)" style="fill: none; stroke: #d8d8d8; stroke-opacity: 0.45; stroke-width: 0.38; stroke-linecap: square"/>
     </g>
     <g id="line2d_12">
      <g>
       <use xlink:href="#mb8b650ca8d" x="36.93075" y="103.356312" style="fill: #333333; stroke: #333333; stroke-width: 0.6"/>
      </g>
     </g>
     <g id="text_7">
      <text style="font-size: 8px; font-family: 'Arial'; text-anchor: end" x="30.93075" y="106.219437" transform="rotate(-0 30.93075 106.219437)">1.5</text>
     </g>
    </g>
    <g id="ytick_6">
     <g id="line2d_13">
      <path d="M 36.93075 72.553506 
L 341.08475 72.553506 
" clip-path="url(#pc7e6925f3e)" style="fill: none; stroke: #d8d8d8; stroke-opacity: 0.45; stroke-width: 0.38; stroke-linecap: square"/>
     </g>
     <g id="line2d_14">
      <g>
       <use xlink:href="#mb8b650ca8d" x="36.93075" y="72.553506" style="fill: #333333; stroke: #333333; stroke-width: 0.6"/>
      </g>
     </g>
     <g id="text_8">
      <text style="font-size: 8px; font-family: 'Arial'; text-anchor: end" x="30.93075" y="75.416631" transform="rotate(-0 30.93075 75.416631)">2.0</text>
     </g>
    </g>
    <g id="text_9">
     <text style="font-size: 8.8px; font-family: 'Arial'; text-anchor: middle" x="9.286125" y="139.342625" transform="rotate(-90 9.286125 139.342625)">Target-control FAS gain</text>
    </g>
   </g>
   <g id="patch_3">
    <path d="M 50.755932 195.764729 
L 89.337835 195.764729 
L 89.337835 218.661025 
L 50.755932 218.661025 
z
" clip-path="url(#pc7e6925f3e)" style="fill: #0072b2; stroke: #333333; stroke-width: 0.35; stroke-linejoin: miter"/>
   </g>
   <g id="patch_4">
    <path d="M 211.51386 195.764729 
L 250.095763 195.764729 
L 250.095763 213.990315 
L 211.51386 213.990315 
z
" clip-path="url(#pc7e6925f3e)" style="fill: #0072b2; stroke: #333333; stroke-width: 0.35; stroke-linejoin: miter"/>
   </g>
   <g id="patch_5">
    <path d="M 89.337835 195.764729 
L 127.919737 195.764729 
L 127.919737 219.51592 
L 89.337835 219.51592 
z
" clip-path="url(#pc7e6925f3e)" style="fill: url(#hcff396cc4e); stroke: #333333; stroke-width: 0.35; stroke-linejoin: miter"/>
   </g>
   <g id="patch_6">
    <path d="M 250.095763 195.764729 
L 288.677665 195.764729 
L 288.677665 215.590425 
L 250.095763 215.590425 
z
" clip-path="url(#pc7e6925f3e)" style="fill: url(#hcff396cc4e); stroke: #333333; stroke-width: 0.35; stroke-linejoin: miter"/>
   </g>
   <g id="patch_7">
    <path d="M 127.919737 195.764729 
L 166.50164 195.764729 
L 166.50164 66.647079 
L 127.919737 66.647079 
z
" clip-path="url(#pc7e6925f3e)" style="fill: url(#h4d6e95ce59); stroke: #333333; stroke-width: 0.35; stroke-linejoin: miter"/>
   </g>
   <g id="patch_8">
    <path d="M 288.677665 195.764729 
L 327.259568 195.764729 
L 327.259568 59.16933 
L 288.677665 59.16933 
z
" clip-path="url(#pc7e6925f3e)" style="fill: url(#h4d6e95ce59); stroke: #333333; stroke-width: 0.35; stroke-linejoin: miter"/>
   </g>
   <g id="line2d_15">
    <path d="M 36.93075 195.764729 
L 341.08475 195.764729 
" clip-path="url(#pc7e6925f3e)" style="fill: none; stroke: #000000; stroke-width: 0.8; stroke-linecap: square"/>
   </g>
   <g id="patch_9">
    <path d="M 36.93075 227.53325 
L 36.93075 51.152 
" style="fill: none; stroke: #333333; stroke-width: 0.7; stroke-linejoin: miter; stroke-linecap: square"/>
   </g>
   <g id="patch_10">
    <path d="M 36.93075 227.53325 
L 341.08475 227.53325 
" style="fill: none; stroke: #333333; stroke-width: 0.7; stroke-linejoin: miter; stroke-linecap: square"/>
   </g>
   <g id="text_10">
    <text style="font-weight: 600; font-size: 9.2px; font-family: 'Arial'; text-anchor: start" x="36.93075" y="45.152" transform="rotate(-0 36.93075 45.152)">A. False association appears</text>
   </g>
  </g>
  <g id="axes_2">
   <g id="patch_11">
    <path d="M 384.94875 227.53325 
L 689.10275 227.53325 
L 689.10275 51.152 
L 384.94875 51.152 
z
" style="fill: #ffffff"/>
   </g>
   <g id="matplotlib.axis_3">
    <g id="xtick_3">
     <g id="line2d_16">
      <g>
       <use xlink:href="#m6237c7ac7f" x="456.646786" y="227.53325" style="fill: #333333; stroke: #333333; stroke-width: 0.6"/>
      </g>
     </g>
     <g id="text_11">
      <text style="font-size: 8px; font-family: 'Arial'; text-anchor: middle" x="456.646786" y="239.2595" transform="rotate(-0 456.646786 239.2595)">MLP</text>
     </g>
    </g>
    <g id="xtick_4">
     <g id="line2d_17">
      <g>
       <use xlink:href="#m6237c7ac7f" x="617.404714" y="227.53325" style="fill: #333333; stroke: #333333; stroke-width: 0.6"/>
      </g>
     </g>
     <g id="text_12">
      <text style="font-size: 8px; font-family: 'Arial'; text-anchor: middle" x="617.404714" y="239.2595" transform="rotate(-0 617.404714 239.2595)">TabM-mini</text>
     </g>
    </g>
   </g>
   <g id="matplotlib.axis_4">
    <g id="ytick_7">
     <g id="line2d_18">
      <path d="M 384.94875 226.567535 
L 689.10275 226.567535 
" clip-path="url(#pa77bcf5647)" style="fill: none; stroke: #d8d8d8; stroke-opacity: 0.45; stroke-width: 0.38; stroke-linecap: square"/>
     </g>
     <g id="line2d_19">
      <g>
       <use xlink:href="#mb8b650ca8d" x="384.94875" y="226.567535" style="fill: #333333; stroke: #333333; stroke-width: 0.6"/>
      </g>
     </g>
     <g id="text_13">
      <text style="font-size: 8px; font-family: 'Arial'; text-anchor: end" x="378.94875" y="229.43066" transform="rotate(-0 378.94875 229.43066)">−0.5</text>
     </g>
    </g>
    <g id="ytick_8">
     <g id="line2d_20">
      <path d="M 384.94875 195.764729 
L 689.10275 195.764729 
" clip-path="url(#pa77bcf5647)" style="fill: none; stroke: #d8d8d8; stroke-opacity: 0.45; stroke-width: 0.38; stroke-linecap: square"/>
     </g>
     <g id="line2d_21">
      <g>
       <use xlink:href="#mb8b650ca8d" x="384.94875" y="195.764729" style="fill: #333333; stroke: #333333; stroke-width: 0.6"/>
      </g>
     </g>
     <g id="text_14">
      <text style="font-size: 8px; font-family: 'Arial'; text-anchor: end" x="378.94875" y="198.627854" transform="rotate(-0 378.94875 198.627854)">0.0</text>
     </g>
    </g>
    <g id="ytick_9">
     <g id="line2d_22">
      <path d="M 384.94875 164.961924 
L 689.10275 164.961924 
" clip-path="url(#pa77bcf5647)" style="fill: none; stroke: #d8d8d8; stroke-opacity: 0.45; stroke-width: 0.38; stroke-linecap: square"/>
     </g>
     <g id="line2d_23">
      <g>
       <use xlink:href="#mb8b650ca8d" x="384.94875" y="164.961924" style="fill: #333333; stroke: #333333; stroke-width: 0.6"/>
      </g>
     </g>
     <g id="text_15">
      <text style="font-size: 8px; font-family: 'Arial'; text-anchor: end" x="378.94875" y="167.825049" transform="rotate(-0 378.94875 167.825049)">0.5</text>
     </g>
    </g>
    <g id="ytick_10">
     <g id="line2d_24">
      <path d="M 384.94875 134.159118 
L 689.10275 134.159118 
" clip-path="url(#pa77bcf5647)" style="fill: none; stroke: #d8d8d8; stroke-opacity: 0.45; stroke-width: 0.38; stroke-linecap: square"/>
     </g>
     <g id="line2d_25">
      <g>
       <use xlink:href="#mb8b650ca8d" x="384.94875" y="134.159118" style="fill: #333333; stroke: #333333; stroke-width: 0.6"/>
      </g>
     </g>
     <g id="text_16">
      <text style="font-size: 8px; font-family: 'Arial'; text-anchor: end" x="378.94875" y="137.022243" transform="rotate(-0 378.94875 137.022243)">1.0</text>
     </g>
    </g>
    <g id="ytick_11">
     <g id="line2d_26">
      <path d="M 384.94875 103.356312 
L 689.10275 103.356312 
" clip-path="url(#pa77bcf5647)" style="fill: none; stroke: #d8d8d8; stroke-opacity: 0.45; stroke-width: 0.38; stroke-linecap: square"/>
     </g>
     <g id="line2d_27">
      <g>
       <use xlink:href="#mb8b650ca8d" x="384.94875" y="103.356312" style="fill: #333333; stroke: #333333; stroke-width: 0.6"/>
      </g>
     </g>
     <g id="text_17">
      <text style="font-size: 8px; font-family: 'Arial'; text-anchor: end" x="378.94875" y="106.219437" transform="rotate(-0 378.94875 106.219437)">1.5</text>
     </g>
    </g>
    <g id="ytick_12">
     <g id="line2d_28">
      <path d="M 384.94875 72.553506 
L 689.10275 72.553506 
" clip-path="url(#pa77bcf5647)" style="fill: none; stroke: #d8d8d8; stroke-opacity: 0.45; stroke-width: 0.38; stroke-linecap: square"/>
     </g>
     <g id="line2d_29">
      <g>
       <use xlink:href="#mb8b650ca8d" x="384.94875" y="72.553506" style="fill: #333333; stroke: #333333; stroke-width: 0.6"/>
      </g>
     </g>
     <g id="text_18">
      <text style="font-size: 8px; font-family: 'Arial'; text-anchor: end" x="378.94875" y="75.416631" transform="rotate(-0 378.94875 75.416631)">2.0</text>
     </g>
    </g>
    <g id="text_19">
     <text style="font-size: 8.8px; font-family: 'Arial'; text-anchor: middle" x="357.304125" y="139.342625" transform="rotate(-90 357.304125 139.342625)">Target-control trigger interaction</text>
    </g>
   </g>
   <g id="patch_12">
    <path d="M 398.773932 195.764729 
L 437.355835 195.764729 
L 437.355835 218.661025 
L 398.773932 218.661025 
z
" clip-path="url(#pa77bcf5647)" style="fill: #0072b2; stroke: #333333; stroke-width: 0.35; stroke-linejoin: miter"/>
   </g>
   <g id="patch_13">
    <path d="M 559.53186 195.764729 
L 598.113763 195.764729 
L 598.113763 213.990315 
L 559.53186 213.990315 
z
" clip-path="url(#pa77bcf5647)" style="fill: #0072b2; stroke: #333333; stroke-width: 0.35; stroke-linejoin: miter"/>
   </g>
   <g id="patch_14">
    <path d="M 437.355835 195.764729 
L 475.937737 195.764729 
L 475.937737 219.51592 
L 437.355835 219.51592 
z
" clip-path="url(#pa77bcf5647)" style="fill: url(#hcff396cc4e); stroke: #333333; stroke-width: 0.35; stroke-linejoin: miter"/>
   </g>
   <g id="patch_15">
    <path d="M 598.113763 195.764729 
L 636.695665 195.764729 
L 636.695665 215.590425 
L 598.113763 215.590425 
z
" clip-path="url(#pa77bcf5647)" style="fill: url(#hcff396cc4e); stroke: #333333; stroke-width: 0.35; stroke-linejoin: miter"/>
   </g>
   <g id="patch_16">
    <path d="M 475.937737 195.764729 
L 514.51964 195.764729 
L 514.51964 66.647079 
L 475.937737 66.647079 
z
" clip-path="url(#pa77bcf5647)" style="fill: url(#h4d6e95ce59); stroke: #333333; stroke-width: 0.35; stroke-linejoin: miter"/>
   </g>
   <g id="patch_17">
    <path d="M 636.695665 195.764729 
L 675.277568 195.764729 
L 675.277568 59.16933 
L 636.695665 59.16933 
z
" clip-path="url(#pa77bcf5647)" style="fill: url(#h4d6e95ce59); stroke: #333333; stroke-width: 0.35; stroke-linejoin: miter"/>
   </g>
   <g id="line2d_30">
    <path d="M 384.94875 195.764729 
L 689.10275 195.764729 
" clip-path="url(#pa77bcf5647)" style="fill: none; stroke: #000000; stroke-width: 0.8; stroke-linecap: square"/>
   </g>
   <g id="patch_18">
    <path d="M 384.94875 227.53325 
L 384.94875 51.152 
" style="fill: none; stroke: #333333; stroke-width: 0.7; stroke-linejoin: miter; stroke-linecap: square"/>
   </g>
   <g id="patch_19">
    <path d="M 384.94875 227.53325 
L 689.10275 227.53325 
" style="fill: none; stroke: #333333; stroke-width: 0.7; stroke-linejoin: miter; stroke-linecap: square"/>
   </g>
   <g id="text_20">
    <text style="font-weight: 600; font-size: 9.2px; font-family: 'Arial'; text-anchor: start" x="384.94875" y="45.152" transform="rotate(-0 384.94875 45.152)">B. Trigger effect is target-specific</text>
   </g>
  </g>
  <g id="axes_3">
   <g id="patch_20">
    <path d="M 36.93075 439.3385 
L 341.08475 439.3385 
L 341.08475 262.95725 
L 36.93075 262.95725 
z
" style="fill: #ffffff"/>
   </g>
   <g id="matplotlib.axis_5">
    <g id="xtick_5">
     <g id="line2d_31">
      <g>
       <use xlink:href="#m6237c7ac7f" x="108.628786" y="439.3385" style="fill: #333333; stroke: #333333; stroke-width: 0.6"/>
      </g>
     </g>
     <g id="text_21">
      <text style="font-size: 8px; font-family: 'Arial'; text-anchor: middle" x="108.628786" y="451.06475" transform="rotate(-0 108.628786 451.06475)">MLP</text>
     </g>
    </g>
    <g id="xtick_6">
     <g id="line2d_32">
      <g>
       <use xlink:href="#m6237c7ac7f" x="269.386714" y="439.3385" style="fill: #333333; stroke: #333333; stroke-width: 0.6"/>
      </g>
     </g>
     <g id="text_22">
      <text style="font-size: 8px; font-family: 'Arial'; text-anchor: middle" x="269.386714" y="451.06475" transform="rotate(-0 269.386714 451.06475)">TabM-mini</text>
     </g>
    </g>
   </g>
   <g id="matplotlib.axis_6">
    <g id="ytick_13">
     <g id="line2d_33">
      <path d="M 36.93075 431.748395 
L 341.08475 431.748395 
" clip-path="url(#p74c06bd7b0)" style="fill: none; stroke: #d8d8d8; stroke-opacity: 0.45; stroke-width: 0.38; stroke-linecap: square"/>
     </g>
     <g id="line2d_34">
      <g>
       <use xlink:href="#mb8b650ca8d" x="36.93075" y="431.748395" style="fill: #333333; stroke: #333333; stroke-width: 0.6"/>
      </g>
     </g>
     <g id="text_23">
      <text style="font-size: 8px; font-family: 'Arial'; text-anchor: end" x="30.93075" y="434.61152" transform="rotate(-0 30.93075 434.61152)">−0.1</text>
     </g>
    </g>
    <g id="ytick_14">
     <g id="line2d_35">
      <path d="M 36.93075 411.900553 
L 341.08475 411.900553 
" clip-path="url(#p74c06bd7b0)" style="fill: none; stroke: #d8d8d8; stroke-opacity: 0.45; stroke-width: 0.38; stroke-linecap: square"/>
     </g>
     <g id="line2d_36">
      <g>
       <use xlink:href="#mb8b650ca8d" x="36.93075" y="411.900553" style="fill: #333333; stroke: #333333; stroke-width: 0.6"/>
      </g>
     </g>
     <g id="text_24">
      <text style="font-size: 8px; font-family: 'Arial'; text-anchor: end" x="30.93075" y="414.763678" transform="rotate(-0 30.93075 414.763678)">0.0</text>
     </g>
    </g>
    <g id="ytick_15">
     <g id="line2d_37">
      <path d="M 36.93075 392.052711 
L 341.08475 392.052711 
" clip-path="url(#p74c06bd7b0)" style="fill: none; stroke: #d8d8d8; stroke-opacity: 0.45; stroke-width: 0.38; stroke-linecap: square"/>
     </g>
     <g id="line2d_38">
      <g>
       <use xlink:href="#mb8b650ca8d" x="36.93075" y="392.052711" style="fill: #333333; stroke: #333333; stroke-width: 0.6"/>
      </g>
     </g>
     <g id="text_25">
      <text style="font-size: 8px; font-family: 'Arial'; text-anchor: end" x="30.93075" y="394.915836" transform="rotate(-0 30.93075 394.915836)">0.1</text>
     </g>
    </g>
    <g id="ytick_16">
     <g id="line2d_39">
      <path d="M 36.93075 372.204868 
L 341.08475 372.204868 
" clip-path="url(#p74c06bd7b0)" style="fill: none; stroke: #d8d8d8; stroke-opacity: 0.45; stroke-width: 0.38; stroke-linecap: square"/>
     </g>
     <g id="line2d_40">
      <g>
       <use xlink:href="#mb8b650ca8d" x="36.93075" y="372.204868" style="fill: #333333; stroke: #333333; stroke-width: 0.6"/>
      </g>
     </g>
     <g id="text_26">
      <text style="font-size: 8px; font-family: 'Arial'; text-anchor: end" x="30.93075" y="375.067993" transform="rotate(-0 30.93075 375.067993)">0.2</text>
     </g>
    </g>
    <g id="ytick_17">
     <g id="line2d_41">
      <path d="M 36.93075 352.357026 
L 341.08475 352.357026 
" clip-path="url(#p74c06bd7b0)" style="fill: none; stroke: #d8d8d8; stroke-opacity: 0.45; stroke-width: 0.38; stroke-linecap: square"/>
     </g>
     <g id="line2d_42">
      <g>
       <use xlink:href="#mb8b650ca8d" x="36.93075" y="352.357026" style="fill: #333333; stroke: #333333; stroke-width: 0.6"/>
      </g>
     </g>
     <g id="text_27">
      <text style="font-size: 8px; font-family: 'Arial'; text-anchor: end" x="30.93075" y="355.220151" transform="rotate(-0 30.93075 355.220151)">0.3</text>
     </g>
    </g>
    <g id="ytick_18">
     <g id="line2d_43">
      <path d="M 36.93075 332.509184 
L 341.08475 332.509184 
" clip-path="url(#p74c06bd7b0)" style="fill: none; stroke: #d8d8d8; stroke-opacity: 0.45; stroke-width: 0.38; stroke-linecap: square"/>
     </g>
     <g id="line2d_44">
      <g>
       <use xlink:href="#mb8b650ca8d" x="36.93075" y="332.509184" style="fill: #333333; stroke: #333333; stroke-width: 0.6"/>
      </g>
     </g>
     <g id="text_28">
      <text style="font-size: 8px; font-family: 'Arial'; text-anchor: end" x="30.93075" y="335.372309" transform="rotate(-0 30.93075 335.372309)">0.4</text>
     </g>
    </g>
    <g id="ytick_19">
     <g id="line2d_45">
      <path d="M 36.93075 312.661342 
L 341.08475 312.661342 
" clip-path="url(#p74c06bd7b0)" style="fill: none; stroke: #d8d8d8; stroke-opacity: 0.45; stroke-width: 0.38; stroke-linecap: square"/>
     </g>
     <g id="line2d_46">
      <g>
       <use xlink:href="#mb8b650ca8d" x="36.93075" y="312.661342" style="fill: #333333; stroke: #333333; stroke-width: 0.6"/>
      </g>
     </g>
     <g id="text_29">
      <text style="font-size: 8px; font-family: 'Arial'; text-anchor: end" x="30.93075" y="315.524467" transform="rotate(-0 30.93075 315.524467)">0.5</text>
     </g>
    </g>
    <g id="ytick_20">
     <g id="line2d_47">
      <path d="M 36.93075 292.813499 
L 341.08475 292.813499 
" clip-path="url(#p74c06bd7b0)" style="fill: none; stroke: #d8d8d8; stroke-opacity: 0.45; stroke-width: 0.38; stroke-linecap: square"/>
     </g>
     <g id="line2d_48">
      <g>
       <use xlink:href="#mb8b650ca8d" x="36.93075" y="292.813499" style="fill: #333333; stroke: #333333; stroke-width: 0.6"/>
      </g>
     </g>
     <g id="text_30">
      <text style="font-size: 8px; font-family: 'Arial'; text-anchor: end" x="30.93075" y="295.676624" transform="rotate(-0 30.93075 295.676624)">0.6</text>
     </g>
    </g>
    <g id="ytick_21">
     <g id="line2d_49">
      <path d="M 36.93075 272.965657 
L 341.08475 272.965657 
" clip-path="url(#p74c06bd7b0)" style="fill: none; stroke: #d8d8d8; stroke-opacity: 0.45; stroke-width: 0.38; stroke-linecap: square"/>
     </g>
     <g id="line2d_50">
      <g>
       <use xlink:href="#mb8b650ca8d" x="36.93075" y="272.965657" style="fill: #333333; stroke: #333333; stroke-width: 0.6"/>
      </g>
     </g>
     <g id="text_31">
      <text style="font-size: 8px; font-family: 'Arial'; text-anchor: end" x="30.93075" y="275.828782" transform="rotate(-0 30.93075 275.828782)">0.7</text>
     </g>
    </g>
    <g id="text_32">
     <text style="font-size: 8.8px; font-family: 'Arial'; text-anchor: middle" x="9.286125" y="351.147875" transform="rotate(-90 9.286125 351.147875)">Rank-percentile gain</text>
    </g>
   </g>
   <g id="patch_21">
    <path d="M 50.755932 411.900553 
L 89.337835 411.900553 
L 89.337835 430.73082 
L 50.755932 430.73082 
z
" clip-path="url(#p74c06bd7b0)" style="fill: #0072b2; stroke: #333333; stroke-width: 0.35; stroke-linejoin: miter"/>
   </g>
   <g id="patch_22">
    <path d="M 211.51386 411.900553 
L 250.095763 411.900553 
L 250.095763 425.993152 
L 211.51386 425.993152 
z
" clip-path="url(#p74c06bd7b0)" style="fill: #0072b2; stroke: #333333; stroke-width: 0.35; stroke-linejoin: miter"/>
   </g>
   <g id="patch_23">
    <path d="M 89.337835 411.900553 
L 127.919737 411.900553 
L 127.919737 431.32117 
L 89.337835 431.32117 
z
" clip-path="url(#p74c06bd7b0)" style="fill: url(#hcff396cc4e); stroke: #333333; stroke-width: 0.35; stroke-linejoin: miter"/>
   </g>
   <g id="patch_24">
    <path d="M 250.095763 411.900553 
L 288.677665 411.900553 
L 288.677665 426.856182 
L 250.095763 426.856182 
z
" clip-path="url(#p74c06bd7b0)" style="fill: url(#hcff396cc4e); stroke: #333333; stroke-width: 0.35; stroke-linejoin: miter"/>
   </g>
   <g id="patch_25">
    <path d="M 127.919737 411.900553 
L 166.50164 411.900553 
L 166.50164 270.97458 
L 127.919737 270.97458 
z
" clip-path="url(#p74c06bd7b0)" style="fill: url(#h4d6e95ce59); stroke: #333333; stroke-width: 0.35; stroke-linejoin: miter"/>
   </g>
   <g id="patch_26">
    <path d="M 288.677665 411.900553 
L 327.259568 411.900553 
L 327.259568 278.035769 
L 288.677665 278.035769 
z
" clip-path="url(#p74c06bd7b0)" style="fill: url(#h4d6e95ce59); stroke: #333333; stroke-width: 0.35; stroke-linejoin: miter"/>
   </g>
   <g id="line2d_51">
    <path d="M 36.93075 411.900553 
L 341.08475 411.900553 
" clip-path="url(#p74c06bd7b0)" style="fill: none; stroke: #000000; stroke-width: 0.8; stroke-linecap: square"/>
   </g>
   <g id="patch_27">
    <path d="M 36.93075 439.3385 
L 36.93075 262.95725 
" style="fill: none; stroke: #333333; stroke-width: 0.7; stroke-linejoin: miter; stroke-linecap: square"/>
   </g>
   <g id="patch_28">
    <path d="M 36.93075 439.3385 
L 341.08475 439.3385 
" style="fill: none; stroke: #333333; stroke-width: 0.7; stroke-linejoin: miter; stroke-linecap: square"/>
   </g>
   <g id="text_33">
    <text style="font-weight: 600; font-size: 9.2px; font-family: 'Arial'; text-anchor: start" x="36.93075" y="256.95725" transform="rotate(-0 36.93075 256.95725)">C. Target basin moves up</text>
   </g>
  </g>
  <g id="axes_4">
   <g id="patch_29">
    <path d="M 384.94875 439.3385 
L 689.10275 439.3385 
L 689.10275 262.95725 
L 384.94875 262.95725 
z
" style="fill: #ffffff"/>
   </g>
   <g id="matplotlib.axis_7">
    <g id="xtick_7">
     <g id="line2d_52">
      <g>
       <use xlink:href="#m6237c7ac7f" x="460.98725" y="439.3385" style="fill: #333333; stroke: #333333; stroke-width: 0.6"/>
      </g>
     </g>
     <g id="text_34">
      <text style="font-size: 8px; font-family: 'Arial'; text-anchor: middle" x="460.98725" y="451.06475" transform="rotate(-0 460.98725 451.06475)">triggered target</text>
     </g>
    </g>
    <g id="xtick_8">
     <g id="line2d_53">
      <g>
       <use xlink:href="#m6237c7ac7f" x="613.06425" y="439.3385" style="fill: #333333; stroke: #333333; stroke-width: 0.6"/>
      </g>
     </g>
     <g id="text_35">
      <text style="font-size: 8px; font-family: 'Arial'; text-anchor: middle" x="613.06425" y="451.06475" transform="rotate(-0 613.06425 451.06475)">matched control</text>
     </g>
    </g>
   </g>
   <g id="matplotlib.axis_8">
    <g id="ytick_22">
     <g id="line2d_54">
      <path d="M 384.94875 431.32117 
L 689.10275 431.32117 
" clip-path="url(#pb9d0195cb9)" style="fill: none; stroke: #d8d8d8; stroke-opacity: 0.45; stroke-width: 0.38; stroke-linecap: square"/>
     </g>
     <g id="line2d_55">
      <g>
       <use xlink:href="#mb8b650ca8d" x="384.94875" y="431.32117" style="fill: #333333; stroke: #333333; stroke-width: 0.6"/>
      </g>
     </g>
     <g id="text_36">
      <text style="font-size: 8px; font-family: 'Arial'; text-anchor: end" x="378.94875" y="434.184295" transform="rotate(-0 378.94875 434.184295)">0.0</text>
     </g>
    </g>
    <g id="ytick_23">
     <g id="line2d_56">
      <path d="M 384.94875 406.91349 
L 689.10275 406.91349 
" clip-path="url(#pb9d0195cb9)" style="fill: none; stroke: #d8d8d8; stroke-opacity: 0.45; stroke-width: 0.38; stroke-linecap: square"/>
     </g>
     <g id="line2d_57">
      <g>
       <use xlink:href="#mb8b650ca8d" x="384.94875" y="406.91349" style="fill: #333333; stroke: #333333; stroke-width: 0.6"/>
      </g>
     </g>
     <g id="text_37">
      <text style="font-size: 8px; font-family: 'Arial'; text-anchor: end" x="378.94875" y="409.776615" transform="rotate(-0 378.94875 409.776615)">0.5</text>
     </g>
    </g>
    <g id="ytick_24">
     <g id="line2d_58">
      <path d="M 384.94875 382.50581 
L 689.10275 382.50581 
" clip-path="url(#pb9d0195cb9)" style="fill: none; stroke: #d8d8d8; stroke-opacity: 0.45; stroke-width: 0.38; stroke-linecap: square"/>
     </g>
     <g id="line2d_59">
      <g>
       <use xlink:href="#mb8b650ca8d" x="384.94875" y="382.50581" style="fill: #333333; stroke: #333333; stroke-width: 0.6"/>
      </g>
     </g>
     <g id="text_38">
      <text style="font-size: 8px; font-family: 'Arial'; text-anchor: end" x="378.94875" y="385.368935" transform="rotate(-0 378.94875 385.368935)">1.0</text>
     </g>
    </g>
    <g id="ytick_25">
     <g id="line2d_60">
      <path d="M 384.94875 358.09813 
L 689.10275 358.09813 
" clip-path="url(#pb9d0195cb9)" style="fill: none; stroke: #d8d8d8; stroke-opacity: 0.45; stroke-width: 0.38; stroke-linecap: square"/>
     </g>
     <g id="line2d_61">
      <g>
       <use xlink:href="#mb8b650ca8d" x="384.94875" y="358.09813" style="fill: #333333; stroke: #333333; stroke-width: 0.6"/>
      </g>
     </g>
     <g id="text_39">
      <text style="font-size: 8px; font-family: 'Arial'; text-anchor: end" x="378.94875" y="360.961255" transform="rotate(-0 378.94875 360.961255)">1.5</text>
     </g>
    </g>
    <g id="ytick_26">
     <g id="line2d_62">
      <path d="M 384.94875 333.69045 
L 689.10275 333.69045 
" clip-path="url(#pb9d0195cb9)" style="fill: none; stroke: #d8d8d8; stroke-opacity: 0.45; stroke-width: 0.38; stroke-linecap: square"/>
     </g>
     <g id="line2d_63">
      <g>
       <use xlink:href="#mb8b650ca8d" x="384.94875" y="333.69045" style="fill: #333333; stroke: #333333; stroke-width: 0.6"/>
      </g>
     </g>
     <g id="text_40">
      <text style="font-size: 8px; font-family: 'Arial'; text-anchor: end" x="378.94875" y="336.553575" transform="rotate(-0 378.94875 336.553575)">2.0</text>
     </g>
    </g>
    <g id="ytick_27">
     <g id="line2d_64">
      <path d="M 384.94875 309.28277 
L 689.10275 309.28277 
" clip-path="url(#pb9d0195cb9)" style="fill: none; stroke: #d8d8d8; stroke-opacity: 0.45; stroke-width: 0.38; stroke-linecap: square"/>
     </g>
     <g id="line2d_65">
      <g>
       <use xlink:href="#mb8b650ca8d" x="384.94875" y="309.28277" style="fill: #333333; stroke: #333333; stroke-width: 0.6"/>
      </g>
     </g>
     <g id="text_41">
      <text style="font-size: 8px; font-family: 'Arial'; text-anchor: end" x="378.94875" y="312.145895" transform="rotate(-0 378.94875 312.145895)">2.5</text>
     </g>
    </g>
    <g id="ytick_28">
     <g id="line2d_66">
      <path d="M 384.94875 284.87509 
L 689.10275 284.87509 
" clip-path="url(#pb9d0195cb9)" style="fill: none; stroke: #d8d8d8; stroke-opacity: 0.45; stroke-width: 0.38; stroke-linecap: square"/>
     </g>
     <g id="line2d_67">
      <g>
       <use xlink:href="#mb8b650ca8d" x="384.94875" y="284.87509" style="fill: #333333; stroke: #333333; stroke-width: 0.6"/>
      </g>
     </g>
     <g id="text_42">
      <text style="font-size: 8px; font-family: 'Arial'; text-anchor: end" x="378.94875" y="287.738215" transform="rotate(-0 378.94875 287.738215)">3.0</text>
     </g>
    </g>
    <g id="text_43">
     <text style="font-size: 8.8px; font-family: 'Arial'; text-anchor: middle" x="361.976625" y="351.147875" transform="rotate(-90 361.976625 351.147875)">Prediction change under trigger</text>
    </g>
   </g>
   <g id="patch_30">
    <path d="M 449.581475 335.954756 
L 472.393025 335.954756 
L 472.393025 314.924656 
L 449.581475 314.924656 
L 449.581475 335.954756 
z
" clip-path="url(#pb9d0195cb9)" style="fill: #d55e00; opacity: 0.45; stroke: #333333; stroke-linejoin: miter"/>
   </g>
   <g id="line2d_68">
    <path d="M 460.98725 335.954756 
L 460.98725 367.445076 
" clip-path="url(#pb9d0195cb9)" style="fill: none; stroke: #000000; stroke-linecap: square"/>
   </g>
   <g id="line2d_69">
    <path d="M 460.98725 314.924656 
L 460.98725 283.550205 
" clip-path="url(#pb9d0195cb9)" style="fill: none; stroke: #000000; stroke-linecap: square"/>
   </g>
   <g id="line2d_70">
    <path d="M 455.284363 367.445076 
L 466.690138 367.445076 
" clip-path="url(#pb9d0195cb9)" style="fill: none; stroke: #000000; stroke-linecap: square"/>
   </g>
   <g id="line2d_71">
    <path d="M 455.284363 283.550205 
L 466.690138 283.550205 
" clip-path="url(#pb9d0195cb9)" style="fill: none; stroke: #000000; stroke-linecap: square"/>
   </g>
   <g id="line2d_72">
    <defs>
     <path id="ma11822b0d5" d="M 0 3 
C 0.795609 3 1.55874 2.683901 2.12132 2.12132 
C 2.683901 1.55874 3 0.795609 3 0 
C 3 -0.795609 2.683901 -1.55874 2.12132 -2.12132 
C 1.55874 -2.683901 0.795609 -3 0 -3 
C -0.795609 -3 -1.55874 -2.683901 -2.12132 -2.12132 
C -2.683901 -1.55874 -3 -0.795609 -3 0 
C -3 0.795609 -2.683901 1.55874 -2.12132 2.12132 
C -1.55874 2.683901 -0.795609 3 0 3 
z
" style="stroke: #000000"/>
    </defs>
    <g clip-path="url(#pb9d0195cb9)">
     <use xlink:href="#ma11822b0d5" x="460.98725" y="371.272411" style="fill-opacity: 0; stroke: #000000"/>
     <use xlink:href="#ma11822b0d5" x="460.98725" y="368.627145" style="fill-opacity: 0; stroke: #000000"/>
     <use xlink:href="#ma11822b0d5" x="460.98725" y="370.887654" style="fill-opacity: 0; stroke: #000000"/>
     <use xlink:href="#ma11822b0d5" x="460.98725" y="371.628642" style="fill-opacity: 0; stroke: #000000"/>
     <use xlink:href="#ma11822b0d5" x="460.98725" y="377.558103" style="fill-opacity: 0; stroke: #000000"/>
     <use xlink:href="#ma11822b0d5" x="460.98725" y="377.18325" style="fill-opacity: 0; stroke: #000000"/>
     <use xlink:href="#ma11822b0d5" x="460.98725" y="371.294058" style="fill-opacity: 0; stroke: #000000"/>
     <use xlink:href="#ma11822b0d5" x="460.98725" y="373.273824" style="fill-opacity: 0; stroke: #000000"/>
     <use xlink:href="#ma11822b0d5" x="460.98725" y="368.680339" style="fill-opacity: 0; stroke: #000000"/>
     <use xlink:href="#ma11822b0d5" x="460.98725" y="370.936093" style="fill-opacity: 0; stroke: #000000"/>
     <use xlink:href="#ma11822b0d5" x="460.98725" y="368.892061" style="fill-opacity: 0; stroke: #000000"/>
     <use xlink:href="#ma11822b0d5" x="460.98725" y="369.525474" style="fill-opacity: 0; stroke: #000000"/>
     <use xlink:href="#ma11822b0d5" x="460.98725" y="367.584686" style="fill-opacity: 0; stroke: #000000"/>
     <use xlink:href="#ma11822b0d5" x="460.98725" y="370.818975" style="fill-opacity: 0; stroke: #000000"/>
     <use xlink:href="#ma11822b0d5" x="460.98725" y="369.426989" style="fill-opacity: 0; stroke: #000000"/>
     <use xlink:href="#ma11822b0d5" x="460.98725" y="372.420687" style="fill-opacity: 0; stroke: #000000"/>
     <use xlink:href="#ma11822b0d5" x="460.98725" y="413.353555" style="fill-opacity: 0; stroke: #000000"/>
     <use xlink:href="#ma11822b0d5" x="460.98725" y="368.93059" style="fill-opacity: 0; stroke: #000000"/>
     <use xlink:href="#ma11822b0d5" x="460.98725" y="369.435223" style="fill-opacity: 0; stroke: #000000"/>
     <use xlink:href="#ma11822b0d5" x="460.98725" y="367.559488" style="fill-opacity: 0; stroke: #000000"/>
     <use xlink:href="#ma11822b0d5" x="460.98725" y="375.131571" style="fill-opacity: 0; stroke: #000000"/>
     <use xlink:href="#ma11822b0d5" x="460.98725" y="370.539628" style="fill-opacity: 0; stroke: #000000"/>
     <use xlink:href="#ma11822b0d5" x="460.98725" y="369.642766" style="fill-opacity: 0; stroke: #000000"/>
     <use xlink:href="#ma11822b0d5" x="460.98725" y="372.318094" style="fill-opacity: 0; stroke: #000000"/>
     <use xlink:href="#ma11822b0d5" x="460.98725" y="368.794833" style="fill-opacity: 0; stroke: #000000"/>
     <use xlink:href="#ma11822b0d5" x="460.98725" y="372.52832" style="fill-opacity: 0; stroke: #000000"/>
     <use xlink:href="#ma11822b0d5" x="460.98725" y="281.904738" style="fill-opacity: 0; stroke: #000000"/>
     <use xlink:href="#ma11822b0d5" x="460.98725" y="277.410053" style="fill-opacity: 0; stroke: #000000"/>
     <use xlink:href="#ma11822b0d5" x="460.98725" y="270.97458" style="fill-opacity: 0; stroke: #000000"/>
     <use xlink:href="#ma11822b0d5" x="460.98725" y="278.573023" style="fill-opacity: 0; stroke: #000000"/>
     <use xlink:href="#ma11822b0d5" x="460.98725" y="282.676393" style="fill-opacity: 0; stroke: #000000"/>
     <use xlink:href="#ma11822b0d5" x="460.98725" y="283.224112" style="fill-opacity: 0; stroke: #000000"/>
     <use xlink:href="#ma11822b0d5" x="460.98725" y="282.344126" style="fill-opacity: 0; stroke: #000000"/>
    </g>
   </g>
   <g id="patch_31">
    <path d="M 601.658475 357.692971 
L 624.470025 357.692971 
L 624.470025 325.741524 
L 601.658475 325.741524 
L 601.658475 357.692971 
z
" clip-path="url(#pb9d0195cb9)" style="fill: #009e73; opacity: 0.45; stroke: #333333; stroke-linejoin: miter"/>
   </g>
   <g id="line2d_73">
    <path d="M 613.06425 357.692971 
L 613.06425 394.172441 
" clip-path="url(#pb9d0195cb9)" style="fill: none; stroke: #000000; stroke-linecap: square"/>
   </g>
   <g id="line2d_74">
    <path d="M 613.06425 325.741524 
L 613.06425 285.744683 
" clip-path="url(#pb9d0195cb9)" style="fill: none; stroke: #000000; stroke-linecap: square"/>
   </g>
   <g id="line2d_75">
    <path d="M 607.361363 394.172441 
L 618.767137 394.172441 
" clip-path="url(#pb9d0195cb9)" style="fill: none; stroke: #000000; stroke-linecap: square"/>
   </g>
   <g id="line2d_76">
    <path d="M 607.361363 285.744683 
L 618.767137 285.744683 
" clip-path="url(#pb9d0195cb9)" style="fill: none; stroke: #000000; stroke-linecap: square"/>
   </g>
   <g id="line2d_77"/>
   <g id="line2d_78">
    <path d="M 384.94875 431.32117 
L 689.10275 431.32117 
" clip-path="url(#pb9d0195cb9)" style="fill: none; stroke: #000000; stroke-width: 0.8; stroke-linecap: square"/>
   </g>
   <g id="line2d_79">
    <path d="M 449.581475 325.728118 
L 472.393025 325.728118 
" clip-path="url(#pb9d0195cb9)" style="fill: none; stroke: #cc79a7"/>
   </g>
   <g id="line2d_80">
    <defs>
     <path id="m9d99713c9c" d="M 0 -3 
L -3 3 
L 3 3 
z
" style="stroke: #009e73; stroke-linejoin: miter"/>
    </defs>
    <g clip-path="url(#pb9d0195cb9)">
     <use xlink:href="#m9d99713c9c" x="460.98725" y="326.047658" style="fill: #009e73; stroke: #009e73; stroke-linejoin: miter"/>
    </g>
   </g>
   <g id="line2d_81">
    <path d="M 601.658475 339.162577 
L 624.470025 339.162577 
" clip-path="url(#pb9d0195cb9)" style="fill: none; stroke: #cc79a7"/>
   </g>
   <g id="line2d_82">
    <g clip-path="url(#pb9d0195cb9)">
     <use xlink:href="#m9d99713c9c" x="613.06425" y="341.583268" style="fill: #009e73; stroke: #009e73; stroke-linejoin: miter"/>
    </g>
   </g>
   <g id="patch_32">
    <path d="M 384.94875 439.3385 
L 384.94875 262.95725 
" style="fill: none; stroke: #333333; stroke-width: 0.7; stroke-linejoin: miter; stroke-linecap: square"/>
   </g>
   <g id="patch_33">
    <path d="M 384.94875 439.3385 
L 689.10275 439.3385 
" style="fill: none; stroke: #333333; stroke-width: 0.7; stroke-linejoin: miter; stroke-linecap: square"/>
   </g>
   <g id="text_44">
    <text style="font-weight: 600; font-size: 9.2px; font-family: 'Arial'; text-anchor: start" x="384.94875" y="256.95725" transform="rotate(-0 384.94875 256.95725)">D. Per-record trigger response</text>
   </g>
  </g>
  <g id="legend_1">
   <g id="patch_34">
    <path d="M 246.777375 11.80625 
L 257.177375 11.80625 
L 257.177375 6.20625 
L 246.777375 6.20625 
z
" style="fill: #0072b2; stroke: #333333; stroke-width: 0.35; stroke-linejoin: miter"/>
   </g>
   <g id="text_45">
    <text style="font-size: 8px; font-family: 'Arial'; text-anchor: start" x="260.777375" y="11.80625" transform="rotate(-0 260.777375 11.80625)">Clean</text>
   </g>
   <g id="patch_35">
    <path d="M 297.678625 11.80625 
L 308.078625 11.80625 
L 308.078625 6.20625 
L 297.678625 6.20625 
z
" style="fill: url(#hcff396cc4e); stroke: #333333; stroke-width: 0.35; stroke-linejoin: miter"/>
   </g>
   <g id="text_46">
    <text style="font-size: 8px; font-family: 'Arial'; text-anchor: start" x="311.678625" y="11.80625" transform="rotate(-0 311.678625 11.80625)">Random swap</text>
   </g>
   <g id="patch_36">
    <path d="M 378.812375 11.80625 
L 389.212375 11.80625 
L 389.212375 6.20625 
L 378.812375 6.20625 
z
" style="fill: url(#h4d6e95ce59); stroke: #333333; stroke-width: 0.35; stroke-linejoin: miter"/>
   </g>
   <g id="text_47">
    <text style="font-size: 8px; font-family: 'Arial'; text-anchor: start" x="392.812375" y="11.80625" transform="rotate(-0 392.812375 11.80625)">Targeted swap</text>
   </g>
  </g>
 </g>
 <defs>
  <clipPath id="pc7e6925f3e">
   <rect x="36.93075" y="51.152" width="304.154" height="176.38125"/>
  </clipPath>
  <clipPath id="pa77bcf5647">
   <rect x="384.94875" y="51.152" width="304.154" height="176.38125"/>
  </clipPath>
  <clipPath id="p74c06bd7b0">
   <rect x="36.93075" y="262.95725" width="304.154" height="176.38125"/>
  </clipPath>
  <clipPath id="pb9d0195cb9">
   <rect x="384.94875" y="262.95725" width="304.154" height="176.38125"/>
  </clipPath>
 </defs>
 <defs>
  <pattern id="hcff396cc4e" patternUnits="userSpaceOnUse" x="0" y="0" width="72" height="72">
   <rect x="0" y="0" width="73" height="73" fill="#009e73"/>
   <path d="M -36 36 
L 36 -36 
M -33 39 
L 39 -33 
M -30 42 
L 42 -30 
M -27 45 
L 45 -27 
M -24 48 
L 48 -24 
M -21 51 
L 51 -21 
M -18 54 
L 54 -18 
M -15 57 
L 57 -15 
M -12 60 
L 60 -12 
M -9 63 
L 63 -9 
M -6 66 
L 66 -6 
M -3 69 
L 69 -3 
M 0 72 
L 72 0 
M 3 75 
L 75 3 
M 6 78 
L 78 6 
M 9 81 
L 81 9 
M 12 84 
L 84 12 
M 15 87 
L 87 15 
M 18 90 
L 90 18 
M 21 93 
L 93 21 
M 24 96 
L 96 24 
M 27 99 
L 99 27 
M 30 102 
L 102 30 
M 33 105 
L 105 33 
M 36 108 
L 108 36 
" style="fill: #333333; stroke: #333333; stroke-width: 1.0; stroke-linecap: butt; stroke-linejoin: miter"/>
  </pattern>
  <pattern id="h4d6e95ce59" patternUnits="userSpaceOnUse" x="0" y="0" width="72" height="72">
   <rect x="0" y="0" width="73" height="73" fill="#d55e00"/>
   <path d="M -36 36 
L 36 108 
M -33 33 
L 39 105 
M -30 30 
L 42 102 
M -27 27 
L 45 99 
M -24 24 
L 48 96 
M -21 21 
L 51 93 
M -18 18 
L 54 90 
M -15 15 
L 57 87 
M -12 12 
L 60 84 
M -9 9 
L 63 81 
M -6 6 
L 66 78 
M -3 3 
L 69 75 
M 0 0 
L 72 72 
M 3 -3 
L 75 69 
M 6 -6 
L 78 66 
M 9 -9 
L 81 63 
M 12 -12 
L 84 60 
M 15 -15 
L 87 57 
M 18 -18 
L 90 54 
M 21 -21 
L 93 51 
M 24 -24 
L 96 48 
M 27 -27 
L 99 45 
M 30 -30 
L 102 42 
M 33 -33 
L 105 39 
M 36 -36 
L 108 36 
" style="fill: #333333; stroke: #333333; stroke-width: 1.0; stroke-linecap: butt; stroke-linejoin: miter"/>
  </pattern>
 </defs>
</svg>
